<svg xmlns="http://www.w3.org/2000/svg" xmlns:xlink="http://www.w3.org/1999/xlink" width="3264" zoomAndPan="magnify" viewBox="0 0 2448 698.249983" height="931" preserveAspectRatio="xMidYMid meet" version="1.0"><defs><g/></defs><g fill="#ffffff" fill-opacity="1"><g transform="translate(93.76982, 428.12975)"><g><path d="M 73.09375 -87.703125 C 70.269531 -88.835938 66.664062 -90.394531 62.28125 -92.375 C 57.757812 -94.207031 53.453125 -96.394531 49.359375 -98.9375 C 45.117188 -101.476562 41.519531 -104.300781 38.5625 -107.40625 C 35.445312 -110.519531 33.890625 -113.84375 33.890625 -117.375 C 33.890625 -121.46875 34.953125 -124.859375 37.078125 -127.546875 C 39.191406 -130.085938 41.945312 -132.132812 45.34375 -133.6875 C 48.582031 -135.09375 52.253906 -136.082031 56.359375 -136.65625 C 60.453125 -137.21875 64.476562 -137.5 68.4375 -137.5 C 75.5 -137.5 81.5 -136.789062 86.4375 -135.375 C 91.238281 -133.96875 95.898438 -132.0625 100.421875 -129.65625 L 107.203125 -138.34375 C 101.546875 -141.445312 95.332031 -143.847656 88.5625 -145.546875 C 81.78125 -147.242188 75.140625 -148.09375 68.640625 -148.09375 C 60.734375 -148.09375 53.460938 -147.242188 46.828125 -145.546875 C 40.046875 -143.710938 34.253906 -141.171875 29.453125 -137.921875 C 24.648438 -134.523438 20.90625 -130.570312 18.21875 -126.0625 C 15.53125 -121.394531 14.1875 -116.164062 14.1875 -110.375 C 14.1875 -105.15625 15.601562 -100.566406 18.4375 -96.609375 C 21.113281 -92.648438 24.710938 -89.117188 29.234375 -86.015625 C 33.609375 -82.765625 38.550781 -79.867188 44.0625 -77.328125 C 49.4375 -74.640625 54.875 -72.023438 60.375 -69.484375 C 65.320312 -67.222656 69.914062 -65.109375 74.15625 -63.140625 C 78.382812 -61.015625 82.054688 -58.820312 85.171875 -56.5625 C 88.273438 -54.164062 90.742188 -51.554688 92.578125 -48.734375 C 94.273438 -45.765625 95.125 -42.234375 95.125 -38.140625 C 95.125 -33.046875 94.207031 -28.804688 92.375 -25.421875 C 90.394531 -21.890625 87.78125 -18.992188 84.53125 -16.734375 C 81.28125 -14.472656 77.46875 -12.847656 73.09375 -11.859375 C 68.570312 -10.867188 63.769531 -10.375 58.6875 -10.375 C 55.582031 -10.375 52.40625 -10.519531 49.15625 -10.8125 C 45.757812 -11.09375 42.367188 -11.726562 38.984375 -12.71875 C 35.585938 -13.5625 32.195312 -14.972656 28.8125 -16.953125 C 25.28125 -18.785156 21.820312 -21.253906 18.4375 -24.359375 L 11.015625 -16.53125 C 15.253906 -12.570312 19.492188 -9.535156 23.734375 -7.421875 C 27.960938 -5.160156 32.128906 -3.535156 36.234375 -2.546875 C 40.328125 -1.410156 44.28125 -0.703125 48.09375 -0.421875 C 51.90625 -0.140625 55.503906 0 58.890625 0 C 66.804688 0 74.4375 -0.988281 81.78125 -2.96875 C 88.976562 -4.800781 95.332031 -7.484375 100.84375 -11.015625 C 106.351562 -14.546875 110.800781 -18.785156 114.1875 -23.734375 C 117.4375 -28.535156 119.0625 -33.972656 119.0625 -40.046875 C 119.0625 -47.523438 117.722656 -53.804688 115.046875 -58.890625 C 112.359375 -63.984375 108.894531 -68.296875 104.65625 -71.828125 C 100.28125 -75.210938 95.335938 -78.175781 89.828125 -80.71875 C 84.316406 -83.113281 78.738281 -85.441406 73.09375 -87.703125 Z M 73.09375 -87.703125 "/></g></g></g><g fill="#ffffff" fill-opacity="1"><g transform="translate(231.905545, 428.12975)"><g><path d="M 10.59375 -148.296875 L 10.59375 -137.703125 L 65.890625 -137.703125 L 65.890625 0 L 87.078125 0 L 87.078125 -137.703125 L 142.375 -137.703125 L 142.375 -148.296875 Z M 10.59375 -148.296875 "/></g></g></g><g fill="#ffffff" fill-opacity="1"><g transform="translate(393.558246, 428.12975)"><g><path d="M 31.78125 -10.59375 L 31.78125 -73.515625 L 93.21875 -73.515625 L 93.21875 -84.109375 L 31.78125 -84.109375 L 31.78125 -137.703125 L 107.203125 -137.703125 L 107.203125 -148.296875 L 10.59375 -148.296875 L 10.59375 0 L 111.65625 0 L 111.65625 -10.59375 Z M 31.78125 -10.59375 "/></g></g></g><g fill="#ffffff" fill-opacity="1"><g transform="translate(524.490586, 428.12975)"><g><path d="M 96.8125 -103.59375 C 96.8125 -99.78125 95.96875 -96.109375 94.28125 -92.578125 C 92.582031 -88.910156 90.25 -85.734375 87.28125 -83.046875 C 84.320312 -80.222656 80.789062 -78.035156 76.6875 -76.484375 C 72.457031 -74.785156 67.867188 -73.9375 62.921875 -73.9375 L 31.78125 -73.9375 L 31.78125 -137.5 L 62.921875 -137.5 C 67.867188 -137.5 72.457031 -136.722656 76.6875 -135.171875 C 80.789062 -133.472656 84.320312 -131.28125 87.28125 -128.59375 C 90.25 -125.769531 92.582031 -122.59375 94.28125 -119.0625 C 95.96875 -115.394531 96.8125 -111.65625 96.8125 -107.84375 Z M 10.59375 0 L 31.78125 0 L 31.78125 -63.5625 L 62.921875 -63.5625 C 70.546875 -63.5625 77.75 -64.476562 84.53125 -66.3125 C 91.164062 -68.007812 96.957031 -70.550781 101.90625 -73.9375 C 106.84375 -77.332031 110.726562 -81.570312 113.5625 -86.65625 C 116.382812 -91.59375 117.796875 -97.238281 117.796875 -103.59375 L 117.796875 -108.265625 C 117.796875 -114.617188 116.382812 -120.335938 113.5625 -125.421875 C 110.726562 -130.359375 106.84375 -134.523438 101.90625 -137.921875 C 96.957031 -141.304688 91.164062 -143.921875 84.53125 -145.765625 C 77.75 -147.453125 70.546875 -148.296875 62.921875 -148.296875 L 10.59375 -148.296875 Z M 10.59375 0 "/></g></g></g><g fill="#ffffff" fill-opacity="1"><g transform="translate(661.567016, 428.12975)"><g><path d="M 127.109375 -148.296875 L 127.109375 -79.453125 L 31.78125 -79.453125 L 31.78125 -148.296875 L 10.59375 -148.296875 L 10.59375 0 L 31.78125 0 L 31.78125 -68.859375 L 127.109375 -68.859375 L 127.109375 0 L 148.296875 0 L 148.296875 -148.296875 Z M 127.109375 -148.296875 "/></g></g></g><g fill="#ffffff" fill-opacity="1"><g transform="translate(828.94004, 428.12975)"><g><path d="M 31.78125 -10.59375 L 31.78125 -73.515625 L 93.21875 -73.515625 L 93.21875 -84.109375 L 31.78125 -84.109375 L 31.78125 -137.703125 L 107.203125 -137.703125 L 107.203125 -148.296875 L 10.59375 -148.296875 L 10.59375 0 L 111.65625 0 L 111.65625 -10.59375 Z M 31.78125 -10.59375 "/></g></g></g><g fill="#ffffff" fill-opacity="1"><g transform="translate(959.872425, 428.12975)"><g><path d="M 137.921875 -148.296875 L 137.921875 -31.140625 L 29.65625 -148.296875 L 10.59375 -148.296875 L 10.59375 0 L 21.1875 0 L 21.1875 -126.265625 L 137.921875 0 L 148.515625 0 L 148.515625 -148.296875 Z M 137.921875 -148.296875 "/></g></g></g><g fill="#ffffff" fill-opacity="1"><g transform="translate(1127.670943, 428.12975)"><g/></g></g><g fill="#ffffff" fill-opacity="1"><g transform="translate(1210.510031, 428.12975)"><g/></g></g><g fill="#ffffff" fill-opacity="1"><g transform="translate(1293.360188, 428.12975)"><g><path d="M 91.734375 -148.296875 C 80.015625 -148.296875 69.210938 -146.53125 59.328125 -143 C 49.296875 -139.332031 40.675781 -134.25 33.46875 -127.75 C 26.269531 -121.25 20.691406 -113.484375 16.734375 -104.453125 C 12.640625 -95.265625 10.59375 -85.164062 10.59375 -74.15625 C 10.59375 -63.132812 12.640625 -53.101562 16.734375 -44.0625 C 20.691406 -34.882812 26.269531 -27.046875 33.46875 -20.546875 C 40.675781 -14.054688 49.296875 -9.046875 59.328125 -5.515625 C 69.210938 -1.835938 80.015625 0 91.734375 0 C 103.453125 0 114.328125 -1.835938 124.359375 -5.515625 C 134.242188 -9.046875 142.789062 -14.054688 150 -20.546875 C 157.195312 -27.046875 162.84375 -34.882812 166.9375 -44.0625 C 170.894531 -53.101562 172.875 -63.132812 172.875 -74.15625 C 172.875 -85.164062 170.894531 -95.265625 166.9375 -104.453125 C 162.84375 -113.484375 157.195312 -121.25 150 -127.75 C 142.789062 -134.25 134.242188 -139.332031 124.359375 -143 C 114.328125 -146.53125 103.453125 -148.296875 91.734375 -148.296875 Z M 91.734375 -10.59375 C 80.859375 -10.59375 71.609375 -12.425781 63.984375 -16.09375 C 56.210938 -19.625 49.925781 -24.359375 45.125 -30.296875 C 40.1875 -36.222656 36.585938 -43.003906 34.328125 -50.640625 C 32.066406 -58.265625 30.9375 -66.101562 30.9375 -74.15625 C 30.9375 -82.207031 32.066406 -90.046875 34.328125 -97.671875 C 36.585938 -105.296875 40.1875 -112.070312 45.125 -118 C 49.925781 -123.9375 56.210938 -128.738281 63.984375 -132.40625 C 71.609375 -135.9375 80.859375 -137.703125 91.734375 -137.703125 C 102.609375 -137.703125 111.929688 -135.9375 119.703125 -132.40625 C 127.328125 -128.738281 133.613281 -123.9375 138.5625 -118 C 143.363281 -112.070312 146.894531 -105.296875 149.15625 -97.671875 C 151.40625 -90.046875 152.53125 -82.207031 152.53125 -74.15625 C 152.53125 -66.101562 151.40625 -58.265625 149.15625 -50.640625 C 146.894531 -43.003906 143.363281 -36.222656 138.5625 -30.296875 C 133.613281 -24.359375 127.328125 -19.625 119.703125 -16.09375 C 111.929688 -12.425781 102.609375 -10.59375 91.734375 -10.59375 Z M 91.734375 -10.59375 "/></g></g></g><g fill="#ffffff" fill-opacity="1"><g transform="translate(1485.521378, 428.12975)"><g><path d="M 10.59375 -148.296875 L 13.34375 -111.21875 L 23.9375 -111.21875 L 26.6875 -148.296875 Z M 10.59375 -148.296875 "/></g></g></g><g fill="#ffffff" fill-opacity="1"><g transform="translate(1531.496009, 428.12975)"><g><path d="M 74.78125 -148.296875 L 10.59375 -148.296875 L 10.59375 0 L 74.78125 0 C 84.53125 0 94.066406 -1.625 103.390625 -4.875 C 112.566406 -7.976562 120.757812 -12.5 127.96875 -18.4375 C 135.164062 -24.363281 140.953125 -31.632812 145.328125 -40.25 C 149.566406 -48.863281 151.6875 -58.609375 151.6875 -69.484375 L 151.6875 -78.8125 C 151.6875 -89.6875 149.566406 -99.429688 145.328125 -108.046875 C 140.953125 -116.660156 135.164062 -123.9375 127.96875 -129.875 C 120.757812 -135.800781 112.566406 -140.390625 103.390625 -143.640625 C 94.066406 -146.742188 84.53125 -148.296875 74.78125 -148.296875 Z M 130.71875 -69.484375 C 130.71875 -59.597656 129.09375 -50.984375 125.84375 -43.640625 C 122.59375 -36.296875 118.359375 -30.222656 113.140625 -25.421875 C 107.910156 -20.484375 101.976562 -16.8125 95.34375 -14.40625 C 88.695312 -11.863281 81.914062 -10.59375 75 -10.59375 L 31.984375 -10.59375 L 31.984375 -137.703125 L 75 -137.703125 C 81.914062 -137.703125 88.695312 -136.503906 95.34375 -134.109375 C 101.976562 -131.566406 107.910156 -127.894531 113.140625 -123.09375 C 118.359375 -118.144531 122.59375 -112 125.84375 -104.65625 C 129.09375 -97.3125 130.71875 -88.695312 130.71875 -78.8125 Z M 130.71875 -69.484375 "/></g></g></g><g fill="#ffffff" fill-opacity="1"><g transform="translate(1702.470714, 428.12975)"><g><path d="M 204.015625 -148.296875 L 163.125 -36.234375 L 120.96875 -148.296875 L 116.3125 -148.296875 L 75.421875 -36.234375 L 33.265625 -148.296875 L 10.59375 -148.296875 L 66.53125 0 L 73.515625 0 L 113.140625 -108.890625 L 154.234375 0 L 161.21875 0 L 215.25 -148.296875 Z M 204.015625 -148.296875 "/></g></g></g><g fill="#ffffff" fill-opacity="1"><g transform="translate(1937.004805, 428.12975)"><g><path d="M 130.921875 -148.296875 L 83.265625 -74.359375 L 35.59375 -148.296875 L 10.375 -148.296875 L 66.3125 -61.4375 L 66.3125 0 L 87.5 0 L 87.5 -61.4375 L 143.421875 -148.296875 Z M 130.921875 -148.296875 "/></g></g></g><g fill="#ffffff" fill-opacity="1"><g transform="translate(2099.716846, 428.12975)"><g><path d="M 31.78125 -10.59375 L 31.78125 -73.515625 L 93.21875 -73.515625 L 93.21875 -84.109375 L 31.78125 -84.109375 L 31.78125 -137.703125 L 107.203125 -137.703125 L 107.203125 -148.296875 L 10.59375 -148.296875 L 10.59375 0 L 111.65625 0 L 111.65625 -10.59375 Z M 31.78125 -10.59375 "/></g></g></g><g fill="#ffffff" fill-opacity="1"><g transform="translate(2230.649141, 428.12975)"><g><path d="M 63.140625 -137.5 C 68.078125 -137.5 72.664062 -136.722656 76.90625 -135.171875 C 81 -133.472656 84.53125 -131.28125 87.5 -128.59375 C 90.46875 -125.769531 92.796875 -122.59375 94.484375 -119.0625 C 96.179688 -115.394531 97.03125 -111.65625 97.03125 -107.84375 L 97.03125 -103.171875 C 97.03125 -99.359375 96.179688 -95.6875 94.484375 -92.15625 C 92.796875 -88.625 90.46875 -85.519531 87.5 -82.84375 C 84.53125 -80.15625 81 -78.035156 76.90625 -76.484375 C 72.664062 -74.785156 68.078125 -73.9375 63.140625 -73.9375 L 31.984375 -73.9375 L 31.984375 -137.5 Z M 95.125 -59.328125 C 93.289062 -62.429688 90.816406 -64.972656 87.703125 -66.953125 C 96.742188 -69.773438 104.019531 -74.289062 109.53125 -80.5 C 115.039062 -86.570312 117.796875 -94.203125 117.796875 -103.390625 L 117.796875 -108.046875 C 117.796875 -114.398438 116.382812 -120.117188 113.5625 -125.203125 C 110.726562 -130.148438 106.84375 -134.316406 101.90625 -137.703125 C 96.957031 -141.097656 91.164062 -143.710938 84.53125 -145.546875 C 77.75 -147.242188 70.546875 -148.09375 62.921875 -148.09375 L 10.59375 -148.09375 L 10.59375 0.21875 L 31.78125 0.21875 L 31.78125 -63.34375 L 58.46875 -63.34375 C 61.4375 -63.34375 64.191406 -62.640625 66.734375 -61.234375 C 69.273438 -59.671875 71.320312 -57.550781 72.875 -54.875 L 102.96875 0.21875 L 128.171875 0.21875 Z M 95.125 -59.328125 "/></g></g></g></svg>